<svg width="1024" height="1024" viewBox="0 0 1024 1024" fill="none" xmlns="http://www.w3.org/2000/svg">
<rect width="1024" height="1024" fill="#F5F5F5"/>
<g clip-path="url(#clip0_0_1)">
<path d="M1024 0H0V1024H1024V0Z" fill="#F5F5F5"/>
<path d="M956 512L955.66 679.64L954.64 726.57L952.93 759.68L950.54 785.99L947.44 808.04L943.62 827.06L939.07 843.78L933.77 858.63L927.68 871.93L920.77 883.88L913 894.63L904.31 904.31L894.63 913L883.88 920.77L871.93 927.68L858.63 933.77L843.78 939.07L827.06 943.62L808.04 947.44L785.99 950.54L759.68 952.93L726.57 954.64L679.64 955.66L512 956L344.36 955.66L297.43 954.64L264.32 952.93L238.01 950.54L215.96 947.44L196.94 943.62L180.22 939.07L165.37 933.77L152.07 927.68L140.12 920.77L129.37 913L119.69 904.31L111 894.63L103.23 883.88L96.32 871.93L90.23 858.63L84.93 843.78L80.38 827.06L76.56 808.04L73.46 785.99L71.07 759.68L69.36 726.57L68.34 679.64L68 512L68.34 344.36L69.36 297.43L71.07 264.32L73.46 238.01L76.56 215.96L80.38 196.94L84.93 180.22L90.23 165.37L96.32 152.07L103.23 140.12L111 129.37L119.69 119.69L129.37 111L140.12 103.23L152.07 96.32L165.37 90.23L180.22 84.93L196.94 80.38L215.96 76.56L238.01 73.46L264.32 71.07L297.43 69.36L344.36 68.34L512 68L679.64 68.34L726.57 69.36L759.68 71.07L785.99 73.46L808.04 76.56L827.06 80.38L843.78 84.93L858.63 90.23L871.93 96.32L883.88 103.23L894.63 111L904.31 119.69L913 129.37L920.77 140.12L927.68 152.07L933.77 165.37L939.07 180.22L943.62 196.94L947.44 215.96L950.54 238.01L952.93 264.32L954.64 297.43L955.66 344.36L956 512Z" fill="url(#paint0_linear_0_1)"/>
<path d="M956 512L955.93 625.09L955.72 659.62L955.37 684.48L954.88 704.59L954.26 721.75L953.49 736.86L952.58 750.43L951.53 762.8L950.33 774.19L948.99 784.76L947.51 794.63L945.89 803.9L944.11 812.63L942.19 820.88L940.12 828.7L937.89 836.12L935.52 843.19L932.98 849.92L930.29 856.34L927.44 862.47L924.43 868.33L921.24 873.93L917.89 879.28L914.37 884.39L910.66 889.29L906.78 893.96L902.7 898.43L898.43 902.7L893.96 906.78L889.29 910.66L884.39 914.37L879.28 917.89L873.93 921.24L868.33 924.43L862.47 927.44L856.34 930.29L849.92 932.98L843.19 935.52L836.12 937.89L828.7 940.12L820.88 942.19L812.63 944.11L803.9 945.89L794.63 947.51L784.76 948.99L774.19 950.33L762.8 951.53L750.43 952.58L736.86 953.49L721.75 954.26L704.59 954.88L684.48 955.37L659.62 955.72L625.09 955.93L512 956L398.91 955.93L364.38 955.72L339.52 955.37L319.41 954.88L302.25 954.26L287.14 953.49L273.57 952.58L261.2 951.53L249.81 950.33L239.24 948.99L229.37 947.51L220.1 945.89L211.37 944.11L203.12 942.19L195.3 940.12L187.88 937.89L180.81 935.52L174.08 932.98L167.66 930.29L161.53 927.44L155.67 924.43L150.07 921.24L144.72 917.89L139.61 914.37L134.71 910.66L130.04 906.78L125.57 902.7L121.3 898.43L117.22 893.96L113.34 889.29L109.63 884.39L106.11 879.28L102.76 873.93L99.57 868.33L96.56 862.47L93.71 856.34L91.02 849.92L88.48 843.19L86.11 836.12L83.88 828.7L81.81 820.88L79.89 812.63L78.11 803.9L76.49 794.63L75.01 784.76L73.67 774.19L72.47 762.8L71.42 750.43L70.51 736.86L69.74 721.75L69.12 704.59L68.63 684.48L68.28 659.62L68.07 625.09L68 512L68.07 398.91L68.28 364.38L68.63 339.52L69.12 319.41L69.74 302.25L70.51 287.14L71.42 273.57L72.47 261.2L73.67 249.81L75.01 239.24L76.49 229.37L78.11 220.1L79.89 211.37L81.81 203.12L83.88 195.3L86.11 187.88L88.48 180.81L91.02 174.08L93.71 167.66L96.56 161.53L99.57 155.67L102.76 150.07L106.11 144.72L109.63 139.61L113.34 134.71L117.22 130.04L121.3 125.57L125.57 121.3L130.04 117.22L134.71 113.34L139.61 109.63L144.72 106.11L150.07 102.76L155.67 99.57L161.53 96.56L167.66 93.71L174.08 91.02L180.81 88.48L187.88 86.11L195.3 83.88L203.12 81.81L211.37 79.89L220.1 78.11L229.37 76.49L239.24 75.01L249.81 73.67L261.2 72.47L273.57 71.42L287.14 70.51L302.25 69.74L319.41 69.12L339.52 68.63L364.38 68.28L398.91 68.07L512 68L625.09 68.07L659.62 68.28L684.48 68.63L704.59 69.12L721.75 69.74L736.86 70.51L750.43 71.42L762.8 72.47L774.19 73.67L784.76 75.01L794.63 76.49L803.9 78.11L812.63 79.89L820.88 81.81L828.7 83.88L836.12 86.11L843.19 88.48L849.92 91.02L856.34 93.71L862.47 96.56L868.33 99.57L873.93 102.76L879.28 106.11L884.39 109.63L889.29 113.34L893.96 117.22L898.43 121.3L902.7 125.57L906.78 130.04L910.66 134.71L914.37 139.61L917.89 144.72L921.24 150.07L924.43 155.67L927.44 161.53L930.29 167.66L932.98 174.08L935.52 180.81L937.89 187.88L940.12 195.3L942.19 203.12L944.11 211.37L945.89 220.1L947.51 229.37L948.99 239.24L950.33 249.81L951.53 261.2L952.58 273.57L953.49 287.14L954.26 302.25L954.88 319.41L955.37 339.52L955.72 364.38L955.93 398.91L956 512Z" stroke="white" stroke-opacity="0.78" stroke-width="4"/>
<path d="M956 514L955.93 627.09L955.72 661.62L955.37 686.48L954.88 706.59L954.26 723.75L953.49 738.86L952.58 752.43L951.53 764.8L950.33 776.19L948.99 786.76L947.51 796.63L945.89 805.9L944.11 814.63L942.19 822.88L940.12 830.7L937.89 838.12L935.52 845.19L932.98 851.92L930.29 858.34L927.44 864.47L924.43 870.33L921.24 875.93L917.89 881.28L914.37 886.39L910.66 891.29L906.78 895.96L902.7 900.43L898.43 904.7L893.96 908.78L889.29 912.66L884.39 916.37L879.28 919.89L873.93 923.24L868.33 926.43L862.47 929.44L856.34 932.29L849.92 934.98L843.19 937.52L836.12 939.89L828.7 942.12L820.88 944.19L812.63 946.11L803.9 947.89L794.63 949.51L784.76 950.99L774.19 952.33L762.8 953.53L750.43 954.58L736.86 955.49L721.75 956.26L704.59 956.88L684.48 957.37L659.62 957.72L625.09 957.93L512 958L398.91 957.93L364.38 957.72L339.52 957.37L319.41 956.88L302.25 956.26L287.14 955.49L273.57 954.58L261.2 953.53L249.81 952.33L239.24 950.99L229.37 949.51L220.1 947.89L211.37 946.11L203.12 944.19L195.3 942.12L187.88 939.89L180.81 937.52L174.08 934.98L167.66 932.29L161.53 929.44L155.67 926.43L150.07 923.24L144.72 919.89L139.61 916.37L134.71 912.66L130.04 908.78L125.57 904.7L121.3 900.43L117.22 895.96L113.34 891.29L109.63 886.39L106.11 881.28L102.76 875.93L99.57 870.33L96.56 864.47L93.71 858.34L91.02 851.92L88.48 845.19L86.11 838.12L83.88 830.7L81.81 822.88L79.89 814.63L78.11 805.9L76.49 796.63L75.01 786.76L73.67 776.19L72.47 764.8L71.42 752.43L70.51 738.86L69.74 723.75L69.12 706.59L68.63 686.48L68.28 661.62L68.07 627.09L68 514L68.07 400.91L68.28 366.38L68.63 341.52L69.12 321.41L69.74 304.25L70.51 289.14L71.42 275.57L72.47 263.2L73.67 251.81L75.01 241.24L76.49 231.37L78.11 222.1L79.89 213.37L81.81 205.12L83.88 197.3L86.11 189.88L88.48 182.81L91.02 176.08L93.71 169.66L96.56 163.53L99.57 157.67L102.76 152.07L106.11 146.72L109.63 141.61L113.34 136.71L117.22 132.04L121.3 127.57L125.57 123.3L130.04 119.22L134.71 115.34L139.61 111.63L144.72 108.11L150.07 104.76L155.67 101.57L161.53 98.56L167.66 95.71L174.08 93.02L180.81 90.48L187.88 88.11L195.3 85.88L203.12 83.81L211.37 81.89L220.1 80.11L229.37 78.49L239.24 77.01L249.81 75.67L261.2 74.47L273.57 73.42L287.14 72.51L302.25 71.74L319.41 71.12L339.52 70.63L364.38 70.28L398.91 70.07L512 70L625.09 70.07L659.62 70.28L684.48 70.63L704.59 71.12L721.75 71.74L736.86 72.51L750.43 73.42L762.8 74.47L774.19 75.67L784.76 77.01L794.63 78.49L803.9 80.11L812.63 81.89L820.88 83.81L828.7 85.88L836.12 88.11L843.19 90.48L849.92 93.02L856.34 95.71L862.47 98.56L868.33 101.57L873.93 104.76L879.28 108.11L884.39 111.63L889.29 115.34L893.96 119.22L898.43 123.3L902.7 127.57L906.78 132.04L910.66 136.71L914.37 141.61L917.89 146.72L921.24 152.07L924.43 157.67L927.44 163.53L930.29 169.66L932.98 176.08L935.52 182.81L937.89 189.88L940.12 197.3L942.19 205.12L944.11 213.37L945.89 222.1L947.51 231.37L948.99 241.24L950.33 251.81L951.53 263.2L952.58 275.57L953.49 289.14L954.26 304.25L954.88 321.41L955.37 341.52L955.72 366.38L955.93 400.91L956 514Z" stroke="black" stroke-opacity="0.06" stroke-width="3"/>
<g opacity="0.2">
<path d="M673.722 770.107C625.775 801.166 570.147 817.091 513.619 815.942C457.092 814.792 402.109 796.617 355.374 763.633C308.64 730.649 272.174 684.282 250.423 630.184C228.671 576.087 222.575 516.597 232.878 458.97C243.18 401.343 269.435 348.069 308.442 305.643C347.449 263.218 397.522 233.474 452.555 220.041C507.588 206.607 565.203 210.063 618.374 229.987C671.545 249.911 717.974 285.443 752 332.249" stroke="#2F3740" stroke-width="180" stroke-linecap="round"/>
<path d="M673.722 770.107C625.775 801.166 570.147 817.091 513.619 815.942C457.092 814.792 402.109 796.617 355.374 763.633C308.64 730.649 272.174 684.282 250.423 630.184C228.671 576.087 222.575 516.597 232.878 458.97C243.18 401.343 269.435 348.069 308.442 305.643C347.449 263.218 397.522 233.474 452.555 220.041C507.588 206.607 565.203 210.063 618.374 229.987C671.545 249.911 717.974 285.443 752 332.249" stroke="#F5F5F5" stroke-width="180" stroke-linecap="round"/>
</g>
<path d="M673.722 771.107C625.775 802.166 570.147 818.091 513.619 816.942C457.092 815.792 402.109 797.617 355.374 764.633C308.64 731.649 272.174 685.282 250.423 631.184C228.671 577.087 222.575 517.597 232.878 459.97C243.18 402.343 269.435 349.069 308.442 306.643C347.449 264.218 397.522 234.474 452.555 221.041C507.588 207.607 565.203 211.063 618.374 230.987C671.545 250.911 717.974 286.443 752 333.249" stroke="#2F3740" stroke-width="150" stroke-linecap="round"/>
<g filter="url(#filter0_i_0_1)">
<path d="M679 769C633 797.5 571.852 817.147 515 816C458.149 814.852 403.106 796.649 356.103 763.72C309.102 730.79 272.427 684.5 250.551 630.491C228.675 576.484 222.544 517.092 232.906 459.561C243.267 402.029 269.672 348.843 308.903 306.488C348.133 264.133 398.493 234.438 453.841 221.027C509.189 207.616 567.134 211.066 620.609 230.957C674.084 250.848 720.779 286.321 755 333.05" stroke="#F5F5F5" stroke-width="90" stroke-linecap="round"/>
</g>
<path d="M592 508H767.007C779.669 508 786 513.744 786 525.231V604" stroke="#2867AB" stroke-width="56" stroke-linecap="round" stroke-linejoin="round"/>
<path opacity="0.6" d="M610.129 526H740.884C750.345 526 755.075 530.667 755.075 540V604" stroke="#2867AB" stroke-opacity="0.85" stroke-width="16" stroke-linecap="round" stroke-linejoin="round"/>
<path d="M743.694 658H794.374" stroke="#7EA6CC" stroke-width="16" stroke-linecap="round"/>
<path d="M744.694 700H804.497" stroke="#2F3740" stroke-width="16" stroke-linecap="round"/>
<path d="M800.728 755C811.924 755 821 746.046 821 735C821 723.954 811.924 715 800.728 715C789.532 715 780.456 723.954 780.456 735C780.456 746.046 789.532 755 800.728 755Z" fill="#2C343C"/>
<g filter="url(#filter1_f_0_1)">
<path d="M695.87 395C715.856 429.619 725.546 469.224 723.801 509.16C722.056 549.097 708.949 587.706 686.02 620.45" stroke="white" stroke-opacity="0.35" stroke-width="10" stroke-linecap="round"/>
</g>
</g>
<defs>
<filter id="filter0_i_0_1" x="183" y="168" width="622.003" height="703.048" filterUnits="userSpaceOnUse" color-interpolation-filters="sRGB">
<feFlood flood-opacity="0" result="BackgroundImageFix"/>
<feBlend mode="normal" in="SourceGraphic" in2="BackgroundImageFix" result="shape"/>
<feColorMatrix in="SourceAlpha" type="matrix" values="0 0 0 0 0 0 0 0 0 0 0 0 0 0 0 0 0 0 127 0" result="hardAlpha"/>
<feOffset dx="5" dy="13"/>
<feGaussianBlur stdDeviation="5"/>
<feComposite in2="hardAlpha" operator="arithmetic" k2="-1" k3="1"/>
<feColorMatrix type="matrix" values="0 0 0 0 0 0 0 0 0 0 0 0 0 0 0 0 0 0 0.25 0"/>
<feBlend mode="normal" in2="shape" result="effect1_innerShadow_0_1"/>
</filter>
<filter id="filter1_f_0_1" x="673.02" y="381.999" width="63.9817" height="251.451" filterUnits="userSpaceOnUse" color-interpolation-filters="sRGB">
<feFlood flood-opacity="0" result="BackgroundImageFix"/>
<feBlend mode="normal" in="SourceGraphic" in2="BackgroundImageFix" result="shape"/>
<feGaussianBlur stdDeviation="4" result="effect1_foregroundBlur_0_1"/>
</filter>
<linearGradient id="paint0_linear_0_1" x1="150" y1="120" x2="900" y2="920" gradientUnits="userSpaceOnUse">
<stop stop-color="#FDFCFB"/>
<stop offset="1" stop-color="#F4F1EB"/>
</linearGradient>
<clipPath id="clip0_0_1">
<rect width="1024" height="1024" fill="white"/>
</clipPath>
</defs>
</svg>
